<svg width="36" height="36" viewBox="0 0 36 36" fill="none" xmlns="http://www.w3.org/2000/svg">
<g id="clarity:building-solid" clip-path="url(#clip0_216_821)">
<path id="Vector" d="M31 8H22V33H33V10C33 9.46957 32.7893 8.96086 32.4142 8.58579C32.0391 8.21071 31.5304 8 31 8ZM26 25H24V23H26V25ZM26 20H24V18H26V20ZM26 15H24V13H26V15ZM30 25H28V23H30V25ZM30 20H28V18H30V20ZM30 15H28V13H30V15Z" fill="#1994BC"/>
<path id="Vector_2" d="M17.88 3H6.12C5.55774 3 5.01851 3.22336 4.62093 3.62093C4.22336 4.01851 4 4.55774 4 5.12V33H9V30H15V33H20V5.12C20 4.55774 19.7766 4.01851 19.3791 3.62093C18.9815 3.22336 18.4423 3 17.88 3ZM9 25H7V23H9V25ZM9 20H7V18H9V20ZM9 15H7V13H9V15ZM9 10H7V8H9V10ZM13 25H11V23H13V25ZM13 20H11V18H13V20ZM13 15H11V13H13V15ZM13 10H11V8H13V10ZM17 25H15V23H17V25ZM17 20H15V18H17V20ZM17 15H15V13H17V15ZM17 10H15V8H17V10Z" fill="#1994BC"/>
</g>
<defs>
<clipPath id="clip0_216_821">
<rect width="36" height="36" fill="white"/>
</clipPath>
</defs>
</svg>
