<svg width="60" height="60" viewBox="0 0 60 60" fill="none" xmlns="http://www.w3.org/2000/svg">
<g id="Component 8">
<g id="Vector" filter="url(#filter0_f_12_71)">
<path d="M30 4C32.3867 4 34.6888 4.30469 36.9062 4.91406C39.1237 5.52344 41.1888 6.40365 43.1016 7.55469C45.0143 8.70573 46.7663 10.0599 48.3574 11.6172C49.9486 13.1745 51.3112 14.9264 52.4453 16.873C53.5794 18.8197 54.4512 20.8932 55.0605 23.0938C55.6699 25.2943 55.9831 27.5964 56 30C56 32.3867 55.6953 34.6888 55.0859 36.9062C54.4766 39.1237 53.5964 41.1888 52.4453 43.1016C51.2943 45.0143 49.9401 46.7663 48.3828 48.3574C46.8255 49.9486 45.0736 51.3112 43.127 52.4453C41.1803 53.5794 39.1068 54.4512 36.9062 55.0605C34.7057 55.6699 32.4036 55.9831 30 56C27.6133 56 25.3112 55.6953 23.0938 55.0859C20.8763 54.4766 18.8112 53.5964 16.8984 52.4453C14.9857 51.2943 13.2337 49.9401 11.6426 48.3828C10.0514 46.8255 8.6888 45.0736 7.55469 43.127C6.42057 41.1803 5.54883 39.1068 4.93945 36.9062C4.33008 34.7057 4.01693 32.4036 4 30C4 27.6133 4.30469 25.3112 4.91406 23.0938C5.52344 20.8763 6.40365 18.8112 7.55469 16.8984C8.70573 14.9857 10.0599 13.2337 11.6172 11.6426C13.1745 10.0514 14.9264 8.6888 16.873 7.55469C18.8197 6.42057 20.8932 5.54883 23.0938 4.93945C25.2943 4.33008 27.5964 4.01693 30 4ZM45.3105 21.3926L41.8574 17.9395L25.125 34.6719L18.1426 27.6895L14.6895 31.1426L25.125 41.5781L45.3105 21.3926Z" fill="#7FBCC5"/>
</g>
<path id="Vector_2" d="M30 6C32.2031 6 34.3281 6.28125 36.375 6.84375C38.4219 7.40625 40.3281 8.21875 42.0938 9.28125C43.8594 10.3438 45.4766 11.5938 46.9453 13.0312C48.4141 14.4688 49.6719 16.0859 50.7188 17.8828C51.7656 19.6797 52.5703 21.5938 53.1328 23.625C53.6953 25.6562 53.9844 27.7812 54 30C54 32.2031 53.7188 34.3281 53.1562 36.375C52.5938 38.4219 51.7812 40.3281 50.7188 42.0938C49.6562 43.8594 48.4062 45.4766 46.9688 46.9453C45.5312 48.4141 43.9141 49.6719 42.1172 50.7188C40.3203 51.7656 38.4062 52.5703 36.375 53.1328C34.3438 53.6953 32.2188 53.9844 30 54C27.7969 54 25.6719 53.7188 23.625 53.1562C21.5781 52.5938 19.6719 51.7812 17.9062 50.7188C16.1406 49.6562 14.5234 48.4062 13.0547 46.9688C11.5859 45.5312 10.3281 43.9141 9.28125 42.1172C8.23438 40.3203 7.42969 38.4062 6.86719 36.375C6.30469 34.3438 6.01562 32.2188 6 30C6 27.7969 6.28125 25.6719 6.84375 23.625C7.40625 21.5781 8.21875 19.6719 9.28125 17.9062C10.3438 16.1406 11.5938 14.5234 13.0312 13.0547C14.4688 11.5859 16.0859 10.3281 17.8828 9.28125C19.6797 8.23438 21.5938 7.42969 23.625 6.86719C25.6562 6.30469 27.7812 6.01562 30 6ZM44.1328 22.0547L40.9453 18.8672L25.5 34.3125L19.0547 27.8672L15.8672 31.0547L25.5 40.6875L44.1328 22.0547Z" fill="#00E0FF"/>
</g>
<defs>
<filter id="filter0_f_12_71" x="0" y="0" width="60" height="60" filterUnits="userSpaceOnUse" color-interpolation-filters="sRGB">
<feFlood flood-opacity="0" result="BackgroundImageFix"/>
<feBlend mode="normal" in="SourceGraphic" in2="BackgroundImageFix" result="shape"/>
<feGaussianBlur stdDeviation="2" result="effect1_foregroundBlur_12_71"/>
</filter>
</defs>
</svg>
