<svg width="18" height="18" viewBox="0 0 18 18" fill="none" xmlns="http://www.w3.org/2000/svg">
<g id="Frame">
<g id="1">
<path id="Vector" d="M15.5085 14.2739H2.43036C2.2905 14.2739 2.15637 14.2184 2.05747 14.1195C1.95857 14.0206 1.90302 13.8864 1.90302 13.7466V4.88721C1.90302 4.74735 1.95857 4.61321 2.05747 4.51432C2.15637 4.41542 2.2905 4.35986 2.43036 4.35986H15.5085C15.6483 4.35986 15.7825 4.41542 15.8814 4.51432C15.9803 4.61321 16.0358 4.74735 16.0358 4.88721V13.7466C16.0358 13.8864 15.9803 14.0206 15.8814 14.1195C15.7825 14.2184 15.6483 14.2739 15.5085 14.2739ZM2.9577 13.2192H14.9811V5.41455H2.9577V13.2192Z" fill="white"/>
<path id="Vector_2" d="M8.96957 11.8127C8.8317 11.8127 8.69932 11.7587 8.60078 11.6622L2.06172 5.26379C1.96177 5.16589 1.9048 5.03229 1.90335 4.89239C1.9019 4.75248 1.95608 4.61773 2.05399 4.51778C2.15189 4.41782 2.28549 4.36085 2.42539 4.3594C2.5653 4.35795 2.70005 4.41214 2.8 4.51004L8.96957 10.5471L15.1398 4.51004C15.1893 4.46156 15.2479 4.42331 15.3122 4.39747C15.3764 4.37162 15.4452 4.35869 15.5145 4.3594C15.5837 4.36012 15.6522 4.37448 15.7159 4.40165C15.7796 4.42882 15.8374 4.46828 15.8859 4.51778C15.9343 4.56727 15.9726 4.62582 15.9984 4.6901C16.0243 4.75437 16.0372 4.82311 16.0365 4.89239C16.0358 4.96166 16.0214 5.03011 15.9943 5.09384C15.9671 5.15757 15.9276 5.21531 15.8781 5.26379L9.33907 11.6622C9.24036 11.7588 9.10769 11.8129 8.96957 11.8127Z" fill="white"/>
<path id="Vector_3" d="M2.43036 14.2739C2.32396 14.2735 2.22016 14.2409 2.13261 14.1804C2.04506 14.1199 1.97785 14.0344 1.93982 13.935C1.90179 13.8356 1.89471 13.7271 1.91951 13.6236C1.94432 13.5201 1.99985 13.4266 2.0788 13.3552L6.78517 9.10273C6.83622 9.05444 6.89642 9.01684 6.96221 8.99214C7.02801 8.96744 7.09808 8.95614 7.16831 8.9589C7.23853 8.96167 7.30749 8.97845 7.37114 9.00824C7.43479 9.03804 7.49184 9.08026 7.53894 9.13242C7.58604 9.18459 7.62224 9.24564 7.64541 9.31199C7.66858 9.37834 7.67825 9.44865 7.67386 9.51879C7.66947 9.58893 7.6511 9.65749 7.61984 9.72043C7.58858 9.78337 7.54505 9.83943 7.49181 9.88531L2.78368 14.1392C2.6866 14.2262 2.56073 14.2742 2.43036 14.2739Z" fill="white"/>
<path id="Vector_4" d="M15.5081 14.2736C15.3781 14.2733 15.2528 14.2249 15.1566 14.1375L10.4484 9.8836C10.3484 9.78894 10.2893 9.65889 10.2839 9.52125C10.2785 9.38361 10.3271 9.24931 10.4194 9.14707C10.5117 9.04484 10.6404 8.98278 10.7779 8.97418C10.9153 8.96557 11.0507 9.0111 11.1551 9.10102L15.8632 13.3549C15.9424 13.4265 15.998 13.5203 16.0227 13.6241C16.0474 13.728 16.04 13.8368 16.0016 13.9363C15.9631 14.0359 15.8953 14.1214 15.8072 14.1816C15.7191 14.2418 15.6148 14.2739 15.5081 14.2736Z" fill="white"/>
</g>
</g>
</svg>
