<svg width="38" height="38" viewBox="0 0 38 38" fill="none" xmlns="http://www.w3.org/2000/svg">
<path id="Vector" d="M19 10C17.9391 10 16.9217 9.52589 16.1716 8.68198C15.4214 7.83807 15 6.69347 15 5.5C15 4.30653 15.4214 3.16193 16.1716 2.31802C16.9217 1.47411 17.9391 1 19 1C20.0609 1 21.0783 1.47411 21.8284 2.31802C22.5786 3.16193 23 4.30653 23 5.5C23 6.69347 22.5786 7.83807 21.8284 8.68198C21.0783 9.52589 20.0609 10 19 10ZM19 10V28M19 28C20.0609 28 21.0783 28.4741 21.8284 29.318C22.5786 30.1619 23 31.3065 23 32.5C23 33.6935 22.5786 34.8381 21.8284 35.682C21.0783 36.5259 20.0609 37 19 37C17.9391 37 16.9217 36.5259 16.1716 35.682C15.4214 34.8381 15 33.6935 15 32.5C15 31.3065 15.4214 30.1619 16.1716 29.318C16.9217 28.4741 17.9391 28 19 28ZM7.632 20.116L16.368 8.884M30.368 20.116L21.636 8.8885M9 23.5C9 22.3065 8.57857 21.1619 7.82843 20.318C7.07828 19.4741 6.06087 19 5 19C3.93913 19 2.92172 19.4741 2.17157 20.318C1.42143 21.1619 1 22.3065 1 23.5C1 24.6935 1.42143 25.8381 2.17157 26.682C2.92172 27.5259 3.93913 28 5 28C6.06087 28 7.07828 27.5259 7.82843 26.682C8.57857 25.8381 9 24.6935 9 23.5ZM37 23.5C37 22.3065 36.5786 21.1619 35.8284 20.318C35.0783 19.4741 34.0609 19 33 19C31.9391 19 30.9217 19.4741 30.1716 20.318C29.4214 21.1619 29 22.3065 29 23.5C29 24.6935 29.4214 25.8381 30.1716 26.682C30.9217 27.5259 31.9391 28 33 28C34.0609 28 35.0783 27.5259 35.8284 26.682C36.5786 25.8381 37 24.6935 37 23.5Z" stroke="#1994BC" stroke-width="2" stroke-linecap="round" stroke-linejoin="round"/>
</svg>
