<svg width="36" height="36" viewBox="0 0 36 36" fill="none" xmlns="http://www.w3.org/2000/svg">
<g id="mdi:design">
<path id="Vector" d="M4.49999 25.875V31.5H10.125L26.715 14.895L21.09 9.26996L4.49999 25.875ZM33.915 27.54L27.54 33.915L19.74 26.115L22.395 23.46L23.895 24.96L27.6 21.24L29.73 23.37L27.54 25.5L29.13 27L31.26 24.9L33.915 27.54ZM9.91499 16.245L2.08499 8.45996L8.45999 2.08496L11.1 4.73996L7.39499 8.45996L8.99999 10.05L12.69 6.32996L14.82 8.45996L12.69 10.575L14.19 12.075L9.91499 16.245ZM31.065 10.5C31.65 9.91496 31.65 8.99996 31.065 8.38496L27.555 4.93496C27 4.34996 26.025 4.34996 25.44 4.93496L22.68 7.67996L28.305 13.305L31.065 10.5Z" fill="#1994BC"/>
</g>
</svg>
